# xmcd
#
# Track frame offsets: 
#        150
#        12117
#        28741
#        47340
#        60077
#        74753
#        91687
#        104509
#        126081
#        147740
#
# Disc length: 2217 seconds
#
# Revision: 0
# Processed by: cddbd v1.5.2PL0 Copyright (c) Steve Scherf et al.
# Submitted via: ExactAudioCopy v1.0b3
#
DISCID=8308a70a
DTITLE=Jonathan Byrd - You Can't Outrun The Radio
DYEAR=2014
DGENRE=Country
TTITLE0=38 Baby
TTITLE1=Slip Away
TTITLE2=Starlight
TTITLE3=Mama's Got Wheels
TTITLE4=A Big Truck Brought It
TTITLE5=Pale Rider
TTITLE6=Poor Johnny
TTITLE7=Working Offshore
TTITLE8=You Can't Outrun The Radio
TTITLE9=Close Enough To Touch
EXTD=
EXTT0=
EXTT1=
EXTT2=
EXTT3=
EXTT4=
EXTT5=
EXTT6=
EXTT7=
EXTT8=
EXTT9=
PLAYORDER=
